# xmcd
#
# Track frame offsets:
#	150
#	45969
#	59296
#	96626
#	124256
#	150651
#	178824
#
# Disc length: 2918 seconds
#
# Revision: 1
# Processed by: cddbd v1.5.2PL0 Copyright (c) Steve Scherf et al.
# Submitted via: audiograbber 1.83.01
#
DISCID=5b0b6407
DTITLE=Sibila de Villa - Camposanto
DYEAR=2006
DGENRE=Instrumental
TTITLE0=¿Por qué?
TTITLE1=Muy a mi pesar
TTITLE2=El último beso
TTITLE3=Quiéreme mucho
TTITLE4=Toda una vida
TTITLE5=Vete de mi
TTITLE6=Bésame mucho
EXTD=Saxofón soprano, saxofón alto, flauta transversa\nwww.pyp.com.mx
EXTT0=
EXTT1=
EXTT2=
EXTT3=
EXTT4=
EXTT5=
EXTT6=
PLAYORDER=
